<?xml version="1.0" encoding="UTF-8" standalone="no"?>
<svg
   viewBox="0 0 96 95.999997"
   version="1.1"
   id="svg20"
   sodipodi:docname="_IconoSanity.svg"
   inkscape:version="1.3.2 (091e20e, 2023-11-25, custom)"
   width="96"
   height="96"
   inkscape:export-filename="H:\Documentacion\Basic\Proyectos\0-Biblioteca Revisiones\Images\Resaltes.png"
   inkscape:export-xdpi="96"
   inkscape:export-ydpi="96"
   xmlns:inkscape="http://www.inkscape.org/namespaces/inkscape"
   xmlns:sodipodi="http://sodipodi.sourceforge.net/DTD/sodipodi-0.dtd"
   xmlns="http://www.w3.org/2000/svg"
   xmlns:svg="http://www.w3.org/2000/svg">
  <sodipodi:namedview
     id="namedview22"
     pagecolor="#ffffff"
     bordercolor="#666666"
     borderopacity="1.0"
     inkscape:pageshadow="2"
     inkscape:pageopacity="0"
     inkscape:pagecheckerboard="0"
     showgrid="false"
     inkscape:zoom="3.172524"
     inkscape:cx="61.780462"
     inkscape:cy="46.808157"
     inkscape:window-width="1920"
     inkscape:window-height="1017"
     inkscape:window-x="-8"
     inkscape:window-y="-8"
     inkscape:window-maximized="1"
     inkscape:current-layer="layer2"
     height="46.36px"
     showguides="false"
     inkscape:showpageshadow="2"
     inkscape:deskcolor="#ffffff" />
  <defs
     id="defs4">
    <linearGradient
       id="swatch1"
       inkscape:swatch="solid">
      <stop
         style="stop-color:#fffffa;stop-opacity:1;"
         offset="0"
         id="stop1" />
    </linearGradient>
    <style
       id="style2">.cls-1{fill:#37bf44;}.cls-1,.cls-2{fill-rule:evenodd;}.cls-2{fill:#cae0ff;}.cls-3{fill:#0e2238;}</style>
  </defs>
  <g
     inkscape:groupmode="layer"
     id="layer2"
     inkscape:label="diseño">
    <rect
       style="display:none;fill:#fafafa;fill-opacity:1;stroke-width:0.912;stroke-linecap:round;stroke-linejoin:round"
       id="rect850"
       width="77.944603"
       height="88.031219"
       x="3.7824774"
       y="3.7824774" />
    <path
       class="cls-1"
       d="M 8.9130213,18.295797 H 75.229907 V 9.596814 H 8.9130213 Z"
       id="path6"
       style="stroke:#000000;stroke-width:0.898089;stroke-dasharray:none;stroke-opacity:1" />
    <path
       class="cls-2"
       d="M 8.9130213,48.298256 H 70.405743 V 34.855787 H 8.9130213 Z"
       id="path8"
       style="stroke:#000000;stroke-width:0.898089;stroke-dasharray:none;stroke-opacity:1" />
    <path
       class="cls-3"
       d="M 81.779474,92.038443 H 3.0043892 V 3.6330964 H 81.779474 V 43.597158 h 3.024419 V 1.8165483 A 1.5222239,1.8407689 0 0 0 83.28167,0 H 1.5021946 A 1.5222239,1.8407689 0 0 0 0,1.8165483 V 93.854991 A 1.5021946,1.8165482 0 0 0 1.5021946,95.67154 H 83.28167 a 1.5021946,1.8165482 0 0 0 1.522223,-1.816549 v -6.176263 h -3.024419 z"
       id="path10"
       style="stroke:none;stroke-width:2.20331;stroke-dasharray:none" />
    <rect
       class="cls-3"
       height="2.9927695"
       width="38.055599"
       x="8.9130211"
       y="25.638058"
       id="rect16"
       style="stroke:none;stroke-width:1.99905" />
    <rect
       style="fill:#e0c46d;fill-opacity:1;stroke:#050000;stroke-width:0.898089;stroke-linecap:round;stroke-linejoin:round;stroke-dasharray:none;stroke-opacity:1"
       id="rect954"
       width="59.503349"
       height="35.689705"
       x="14.994211"
       y="52.512608" />
    <path
       style="fill:#5ae7ac;fill-opacity:1;stroke:#2e02c7;stroke-width:2.09554;stroke-miterlimit:4;stroke-dasharray:none;stroke-opacity:1"
       d="M 91.450583,70.744822 83.83072,63.13972 c -0.207488,-0.20695 -0.489024,-0.323361 -0.782662,-0.323621 h -0.13291 c -0.334133,0.03163 -0.634392,0.216576 -0.812199,0.500141 l -2.584257,4.118817 -8.432056,-19.579088 19.743718,8.472993 -4.134809,2.57426 c -0.574745,0.349674 -0.713072,1.121314 -0.295346,1.647529 l 7.664163,7.546258 z"
       id="path2411"
       inkscape:label="path2411" />
  </g>
</svg>
