<?xml version="1.0" encoding="UTF-8" standalone="no"?>
<svg
   height="26"
   width="26"
   version="1.1"
   id="svg4"
   sodipodi:docname="NuevaNota.svg"
   inkscape:version="1.3.2 (091e20e, 2023-11-25, custom)"
   xmlns:inkscape="http://www.inkscape.org/namespaces/inkscape"
   xmlns:sodipodi="http://sodipodi.sourceforge.net/DTD/sodipodi-0.dtd"
   xmlns="http://www.w3.org/2000/svg"
   xmlns:svg="http://www.w3.org/2000/svg">
  <defs
     id="defs4" />
  <sodipodi:namedview
     id="namedview4"
     pagecolor="#ffffff"
     bordercolor="#000000"
     borderopacity="0.25"
     inkscape:showpageshadow="2"
     inkscape:pageopacity="0.0"
     inkscape:pagecheckerboard="0"
     inkscape:deskcolor="#d1d1d1"
     inkscape:zoom="25.65625"
     inkscape:cx="15.980512"
     inkscape:cy="16"
     inkscape:window-width="1920"
     inkscape:window-height="1017"
     inkscape:window-x="-8"
     inkscape:window-y="-8"
     inkscape:window-maximized="1"
     inkscape:current-layer="svg4" />
  <rect
     style="fill:#d9f1dd;fill-opacity:1;stroke:#ffffff;stroke-width:0"
     id="rect5"
     width="26"
     height="26"
     x="0"
     y="0" />
  <g
     id="g5"
     transform="translate(-3.0000002,-2.9999999)">
    <g
       transform="matrix(0.59767065,0.59767065,-0.59767065,0.59767065,14.804951,-1.9304115)"
       id="g4">
      <path
         d="m 12,1.5957031 c 0.0018,1.4272338 0.763978,2.7453681 2,3.4589844 v 1.1171875 4.84375 c -0.35492,0.155887 -0.690507,0.352521 -1,0.585937 -0.975089,0.733663 -1.648221,1.798587 -1.892578,2.994141 h 9.789062 C 20.651126,13.399568 19.976551,12.33456 19,11.601562 18.690313,11.369508 18.354734,11.174189 18,11.019531 V 6.1738281 5.0546875 c 1.236022,-0.7136163 1.998173,-2.0317506 2,-3.4589844 z"
         fill="#a1ddaa"
         id="path1" />
      <path
         d="M 11,0.59570312 V 1.5957031 a 5,5 0 0 0 2,3.9882813 v 4.8242186 a 6,6 0 0 0 -2.908203,4.1875 h -0.002 a 6,6 0 0 0 -0.0293,0.203125 A 6,6 0 0 0 10,15.595703 h 1 10 1 a 6,6 0 0 0 -0.01172,-0.332031 6,6 0 0 0 -0.02734,-0.277344 6,6 0 0 0 -0.04102,-0.345703 6,6 0 0 0 -0.0059,-0.04492 h -0.0039 A 6,6 0 0 0 19,10.40625 V 5.5859375 A 5,5 0 0 0 21,1.5957031 V 0.59570312 Z m 1,0.99999998 h 8 a 4,4 0 0 1 -2,3.4589844 v 1.1191406 4.8457029 c 0.354734,0.154658 0.690313,0.349976 1,0.582031 a 5,5 0 0 1 1.896484,2.994141 H 11.107422 A 5,5 0 0 1 13,11.601562 c 0.309493,-0.233416 0.64508,-0.43005 1,-0.585937 V 6.171875 5.0546875 A 4,4 0 0 1 12,1.5957031 Z m 1.443359,4.2832031 a 5,5 0 0 0 0.103516,0.060547 c -0.03482,-0.019795 -0.06919,-0.039921 -0.103516,-0.060547 z"
         fill="#309048"
         id="path2" />
      <path
         d="m 14,15.405274 h 4 l -1,16 h -2 z"
         fill="#797774"
         id="path3" />
      <path
         d="m 15,15.405274 h 2 l -1,14 z"
         fill="#c8c6c4"
         id="path4" />
    </g>
  </g>
</svg>
